<svg xmlns="http://www.w3.org/2000/svg" xmlns:osb="http://www.openswatchbook.org/uri/2009/osb" xmlns:svg="http://www.w3.org/2000/svg" id="svg7384" width="16" height="16" enable-background="new" version="1.1"><metadata id="metadata90"/><title id="title8473">Paper Symbolic Icon Theme</title><defs id="defs7386"><linearGradient id="linearGradient6882" osb:paint="solid"><stop id="stop6884" offset="0" stop-color="#555" stop-opacity="1"/></linearGradient><linearGradient id="linearGradient5606" osb:paint="solid"><stop id="stop5608" offset="0" stop-color="#000" stop-opacity="1"/></linearGradient><filter id="filter7554" color-interpolation-filters="sRGB"><feBlend id="feBlend7556" in2="BackgroundImage" mode="darken"/></filter></defs><g id="layer9" display="inline" transform="translate(-385.0002,534.99833)"><path id="path6021" fill="#4d4d4d" fill-opacity="1" stroke="none" d="m 393.0002,-533.99805 -3.91016,3.99805 -3.08984,0 0,6 3.08789,0 3.91211,4.00195 0,-14 z m 2,4 0,6 c 1.06,-0.58 1.78906,-1.7 1.78906,-3 0,-1.3 -0.71906,-2.42 -1.78906,-3 z"/><path id="path6036" fill="#4d4d4d" fill-opacity="1" stroke="none" d="m 395,-533.99833 0,1.5 c 2.32,0.74 4,2.93 4,5.5 0,2.57 -1.68,4.76 -4,5.5 l 0,1.5 c 3.15,-0.78 5.5,-3.6 5.5,-7 0,-3.4 -2.35,-6.22 -5.5,-7 z" opacity=".35"/></g></svg>