<svg xmlns="http://www.w3.org/2000/svg" xmlns:osb="http://www.openswatchbook.org/uri/2009/osb" xmlns:svg="http://www.w3.org/2000/svg" id="svg7384" width="16" height="16" enable-background="new" version="1.1"><metadata id="metadata90"/><title id="title8473">Paper Symbolic Icon Theme</title><defs id="defs7386"><linearGradient id="linearGradient5606" osb:paint="solid"><stop id="stop5608" offset="0" stop-color="#000" stop-opacity="1"/></linearGradient><filter id="filter7554" color-interpolation-filters="sRGB"><feBlend id="feBlend7556" in2="BackgroundImage" mode="darken"/></filter></defs><g id="layer9" display="inline" transform="translate(-425.00018,395)"><path id="path6763" fill="#555" fill-opacity="1" stroke="none" d="m 431.0002,-394 0,1 -3,0 c 0,0 0,0.446 0,1 l 0,11 c 0,0.554 0.446,1 1,1 l 8,0 c 0.554,0 1,-0.446 1,-1 l 0,-11 c 0,-0.554 0,-1 0,-1 l -3,0 0,-1 z m 2,4 0,3 3,0 -3,5 0,-3 -3,0 z" opacity=".35"/><path id="path6765" fill="#555" fill-opacity="1" stroke="none" d="m 428.0002,-389 0,8 c 0,0.554 0.446,1 1,1 l 8,0 c 0.554,0 1,-0.446 1,-1 l 0,-8 -5,0 0,2 3,0 -3,5 0,-3 -3,0 2.40625,-4 -4.40625,0 z"/></g></svg>