<svg xmlns="http://www.w3.org/2000/svg" xmlns:osb="http://www.openswatchbook.org/uri/2009/osb" xmlns:svg="http://www.w3.org/2000/svg" id="svg7384" width="16" height="16" enable-background="new" version="1.1"><metadata id="metadata90"/><title id="title8473">Paper Symbolic Icon Theme</title><defs id="defs7386"><linearGradient id="linearGradient6882" osb:paint="solid"><stop id="stop6884" offset="0" stop-color="#555" stop-opacity="1"/></linearGradient><linearGradient id="linearGradient5606" osb:paint="solid"><stop id="stop5608" offset="0" stop-color="#000" stop-opacity="1"/></linearGradient><filter id="filter7554" color-interpolation-filters="sRGB"><feBlend id="feBlend7556" in2="BackgroundImage" mode="darken"/></filter></defs><g id="layer9" display="inline" transform="translate(-365.00038,455.00336)"><path id="path6056" fill="#e74c3c" fill-opacity="1" stroke="none" d="m 371.0002,-454 0,1 -2,0 -1,0 0,1 0,11 c 2e-5,1 1,1 1,1 l 8,0 c 1,0 1,-1 1,-1 l 0,-9 0,-2 0,-1 -3,0 0,-1 z m 1,3 2,0 0,4 -0.25,2 -1.5,0 -0.25,-2 z m 0,7 2,0 0,2 -2,0 z" opacity="1"/></g></svg>