<svg xmlns="http://www.w3.org/2000/svg" xmlns:osb="http://www.openswatchbook.org/uri/2009/osb" xmlns:svg="http://www.w3.org/2000/svg" id="svg7384" width="16" height="16" enable-background="new" version="1.1"><metadata id="metadata90"/><title id="title8473">Paper Symbolic Icon Theme</title><defs id="defs7386"><linearGradient id="linearGradient6882" osb:paint="solid"><stop id="stop6884" offset="0" stop-color="#555" stop-opacity="1"/></linearGradient><linearGradient id="linearGradient5606" osb:paint="solid"><stop id="stop5608" offset="0" stop-color="#000" stop-opacity="1"/></linearGradient><filter id="filter7554" color-interpolation-filters="sRGB"><feBlend id="feBlend7556" in2="BackgroundImage" mode="darken"/></filter></defs><g id="layer9" display="inline" transform="translate(-385.0002,554.99854)"><path id="path6916" fill="#4d4d4d" fill-opacity="1" stroke="none" d="m 391.00022,-553.99854 0,1 -3,0 0,1 0,8 2,-1 3,-5 0,3 5,0 0,-5 0,-1 -3,0 0,-1 z" opacity=".35"/><path id="path6918" fill="#4d4d4d" fill-opacity="1" stroke="none" d="m 388.00022,-546.99854 0,6 c 0,0.554 0.446,1 1,1 l 8,0 c 0.554,0 1,-0.446 1,-1 l 0,-6 -2,0 -3,5 0,-3 -3,0 1.20313,-2 -3.20313,0 z"/></g></svg>