<svg xmlns="http://www.w3.org/2000/svg" xmlns:osb="http://www.openswatchbook.org/uri/2009/osb" xmlns:svg="http://www.w3.org/2000/svg" id="svg7384" width="16" height="16" enable-background="new" version="1.1"><metadata id="metadata90"/><title id="title8473">Paper Symbolic Icon Theme</title><defs id="defs7386"><linearGradient id="linearGradient5606" osb:paint="solid"><stop id="stop5608" offset="0" stop-color="#000" stop-opacity="1"/></linearGradient><filter id="filter7554" color-interpolation-filters="sRGB"><feBlend id="feBlend7556" in2="BackgroundImage" mode="darken"/></filter></defs><g id="layer9" display="inline" transform="translate(-345.00019,395)"><path id="path5701" fill="#555" fill-opacity="1" stroke="none" d="m 351.0002,-394 0,1 -3,0 c 0,0 0,0.446 0,1 l 0,11 c 0,0.554 0.446,1 1,1 l 8,0 c 0.554,0 1,-0.446 1,-1 l 0,-11 c 0,-0.554 0,-1 0,-1 l -3,0 0,-1 -4,0 z m 2,4 c 1.10457,0 2,0.89543 2,2 0,1.10457 -0.89543,2 -2,2 l 0,1 -1,0 0,-2 1,0 c 0.55229,0 1,-0.44772 1,-1 0,-0.55228 -0.44771,-1 -1,-1 -0.55228,0 -1,0.44772 -1,1 l -1,0 c 0,-1.10457 0.89543,-2 2,-2 z m -1,6 1,0 0,1 -1,0 0,-1 z" opacity="1"/></g></svg>