<svg xmlns="http://www.w3.org/2000/svg" xmlns:osb="http://www.openswatchbook.org/uri/2009/osb" xmlns:svg="http://www.w3.org/2000/svg" id="svg7384" width="16" height="16" enable-background="new" version="1.1"><metadata id="metadata90"/><title id="title8473">Paper Symbolic Icon Theme</title><defs id="defs7386"><linearGradient id="linearGradient6882" osb:paint="solid"><stop id="stop6884" offset="0" stop-color="#555" stop-opacity="1"/></linearGradient><linearGradient id="linearGradient5606" osb:paint="solid"><stop id="stop5608" offset="0" stop-color="#000" stop-opacity="1"/></linearGradient><filter id="filter7554" color-interpolation-filters="sRGB"><feBlend id="feBlend7556" in2="BackgroundImage" mode="darken"/></filter></defs><g id="layer9" display="inline" transform="translate(-404.00003,295)"><path display="inline" style="line-height:normal;text-indent:0;text-align:start;text-decoration-line:none;text-decoration-style:solid;text-decoration-color:#000;text-transform:none;block-progression:tb;white-space:normal;isolation:auto;mix-blend-mode:normal;solid-color:#000;solid-opacity:1" id="path9016" fill="#525252" fill-opacity="1" fill-rule="evenodd" stroke="none" stroke-dasharray="none" stroke-dashoffset="0" stroke-linecap="square" stroke-linejoin="round" stroke-miterlimit="4" stroke-opacity="1" stroke-width="2" d="m 412.0002,-294 1.79297,1.79297 -1.79297,1.79297 -2.29297,-2.29297 -0.70703,-0.70703 -1.41406,1.41406 0.70703,0.70703 3,3 a 1.0001,1.0001 0 0 0 1.41406,0 l 2.5,-2.5 1.79297,1.79297 0,-5 -5,0 z" baseline-shift="baseline" clip-rule="nonzero" color="#000" color-interpolation="sRGB" color-interpolation-filters="linearRGB" color-rendering="auto" direction="ltr" enable-background="accumulate" font-family="sans-serif" font-size="medium" font-stretch="normal" font-style="normal" font-variant="normal" font-weight="normal" image-rendering="auto" letter-spacing="normal" opacity=".35" overflow="visible" shape-rendering="auto" text-anchor="start" text-decoration="none" text-rendering="auto" visibility="visible" word-spacing="normal" writing-mode="lr-tb"/><path id="path8887-1" fill="#4d4d4d" fill-opacity="1" stroke="none" stroke-dasharray="none" stroke-linecap="round" stroke-linejoin="miter" stroke-miterlimit="4" stroke-opacity="1" stroke-width="2" d="m 412.14473,-286.98633 c -2.67808,-0.0394 -5.25808,1.00686 -7.15234,2.90039 l -0.70117,0.70117 c -0.38825,0.38825 -0.38825,1.0141 0,1.40235 l 2.10351,2.10156 c 0.38823,0.38824 1.01214,0.38824 1.40039,0 l 1.20508,-1.20312 0,-2.25782 0,0 0.19727,-0.082 c 1.78668,-0.78535 3.82153,-0.7818 5.60546,0.01 l 0.19727,0.0723 0,0 0,2.25782 0.50391,0.50195 0.70117,0.70117 c 0.38825,0.38825 1.01216,0.38824 1.40039,0 l 2.10351,-2.10156 c 0.38825,-0.38825 0.38825,-1.0141 0,-1.40235 l -0.70117,-0.70117 c -1.82342,-1.8227 -4.28535,-2.8631 -6.86328,-2.90039 z" opacity="1"/></g></svg>