<svg xmlns="http://www.w3.org/2000/svg" xmlns:osb="http://www.openswatchbook.org/uri/2009/osb" xmlns:svg="http://www.w3.org/2000/svg" id="svg7384" width="16" height="16" enable-background="new" version="1.1"><metadata id="metadata90"/><title id="title8473">Paper Symbolic Icon Theme</title><defs id="defs7386"><linearGradient id="linearGradient5606" osb:paint="solid"><stop id="stop5608" offset="0" stop-color="#000" stop-opacity="1"/></linearGradient><filter id="filter7554" color-interpolation-filters="sRGB"><feBlend id="feBlend7556" in2="BackgroundImage" mode="darken"/></filter></defs><g id="layer9" display="inline" transform="translate(-485.0002,275.00336)"><path id="path8126" fill="#555" fill-opacity="1" stroke="none" d="m 487.0002,-275 c -1.9998,0 -2,2 -2,2 l 0,9 c 0,0 2e-4,2 2,2 l 12,0 c 0,0 2,0 2,-2 2e-4,-0.003 0,-5.66708 0,-8.99994 0,0 2e-4,-2 -2,-2 z m -2.1e-4,1.99994 12,0 0,8.00036 -12,-3.6e-4 z m 1,13 2e-4,0.99664 10,0 -2e-4,-0.99664 c 0,-1 -1,-1 -1,-1 l -8.02177,0 c 0,0 -0.97823,0 -0.97823,1 z"/><path id="rect5735" fill="#555" fill-opacity="1" stroke="none" d="m 490.0002,-272 0,2 1,0 0,-2 z m 5,0 0,2 1,0 0,-2 z m -5,4 0,1 1,0 4,0 1,0 0,-1 -1,0 -4,0 z m 6,1 0,1 1,0 0,-1 z m -6,0 -1,0 0,1 1,0 z" display="inline" enable-background="new"/></g></svg>