<svg xmlns="http://www.w3.org/2000/svg" xmlns:osb="http://www.openswatchbook.org/uri/2009/osb" xmlns:svg="http://www.w3.org/2000/svg" id="svg7384" width="16" height="16" enable-background="new" version="1.1"><metadata id="metadata90"/><title id="title8473">Paper Symbolic Icon Theme</title><defs id="defs7386"><linearGradient id="linearGradient6882" osb:paint="solid"><stop id="stop6884" offset="0" stop-color="#555" stop-opacity="1"/></linearGradient><linearGradient id="linearGradient5606" osb:paint="solid"><stop id="stop5608" offset="0" stop-color="#000" stop-opacity="1"/></linearGradient><filter id="filter7554" color-interpolation-filters="sRGB"><feBlend id="feBlend7556" in2="BackgroundImage" mode="darken"/></filter></defs><g id="layer9" display="inline" transform="translate(-345.0004,495.00336)"><path id="path7778" fill="#4d4d4d" fill-opacity="1" stroke="none" d="m 353.0002,-494.28125 c -0.73799,0.72824 -1.44477,1.55677 -2.19141,2.28125 l -2.80859,0 0,2.80859 c -0.72459,0.74666 -1.55292,1.4534 -2.28125,2.19141 0.72849,0.73824 1.55656,1.47349 2.28125,2.22266 l 0,2.77734 2.80664,0 c 0.74736,0.725 1.45473,1.55231 2.19336,2.28125 0.73886,-0.7291 1.47479,-1.55615 2.22461,-2.28125 l 2.77539,0 0,-2.77734 c 0.72474,-0.74912 1.5527,-1.48443 2.28125,-2.22266 -0.72829,-0.73805 -1.5567,-1.44467 -2.28125,-2.19141 l 0,-2.80859 -2.77734,0 c -0.74913,-0.72473 -1.48445,-1.55272 -2.22266,-2.28125 z m 0,3.28125 c 2.20914,0 4,1.79086 4,4 0,2.20914 -1.79086,4 -4,4 -2.20914,0 -4,-1.79086 -4,-4 0,-2.20914 1.79086,-4 4,-4 z m 0,1 a 3,3 0 0 0 -3,3 3,3 0 0 0 3,3 3,3 0 0 0 3,-3 3,3 0 0 0 -3,-3 z"/></g></svg>