<svg xmlns="http://www.w3.org/2000/svg" xmlns:osb="http://www.openswatchbook.org/uri/2009/osb" xmlns:svg="http://www.w3.org/2000/svg" id="svg7384" width="16" height="16" enable-background="new" version="1.1"><metadata id="metadata90"/><title id="title8473">Paper Symbolic Icon Theme</title><defs id="defs7386"><linearGradient id="linearGradient5606" osb:paint="solid"><stop id="stop5608" offset="0" stop-color="#000" stop-opacity="1"/></linearGradient><filter id="filter7554" color-interpolation-filters="sRGB"><feBlend id="feBlend7556" in2="BackgroundImage" mode="darken"/></filter></defs><g id="layer9" display="inline" transform="translate(-265.0002,209)"><path id="path6390" fill="#555" fill-opacity="1" stroke="none" stroke-width="2" d="m 265.0002,-207 0,10.01007 c 2e-5,0.83333 0.57399,1.50574 1.0625,1.75 0.48851,0.24436 0.9375,0.25 0.9375,0.25 l 12,0 c 0,0 0.44899,-0.006 0.9375,-0.25 0.48851,-0.24426 1.0625,-0.91667 1.0625,-1.75 l 0,-5 -13.03125,0 -0.46875,5.03125 c -0.0164,0.2618 -0.26945,0.48511 -0.53125,0.46875 -0.2618,-0.0164 -0.48511,-0.26945 -0.46875,-0.53125 l 0.5,-5.5 c 0.01,-0.22281 0.18713,-0.42714 0.40625,-0.46875 0.0312,-0.003 0.0626,-0.003 0.0937,0 l 11.5,0 5e-5,-2.01007 c 0,-1 -0.96528,-0.98993 -0.96528,-0.98993 l -4.53477,0 -2.49995,-2.01007 -5,0 c 0,0 -1,0 -1,1 z" baseline-shift="baseline" color="#000" direction="ltr" display="inline" enable-background="accumulate" font-family="Sans" font-size="medium" font-stretch="normal" font-style="normal" font-variant="normal" font-weight="normal" letter-spacing="normal" overflow="visible" text-anchor="start" text-decoration="none" visibility="visible" word-spacing="normal" writing-mode="lr-tb" style="text-indent:0;text-align:start;line-height:normal;text-transform:none;block-progression:tb;marker:none;-inkscape-font-specification:Sans"/></g></svg>