<svg xmlns="http://www.w3.org/2000/svg" xmlns:osb="http://www.openswatchbook.org/uri/2009/osb" xmlns:svg="http://www.w3.org/2000/svg" id="svg7384" width="16" height="16" enable-background="new" version="1.1"><metadata id="metadata90"/><title id="title8473">Paper Symbolic Icon Theme</title><defs id="defs7386"><linearGradient id="linearGradient5606" osb:paint="solid"><stop id="stop5608" offset="0" stop-color="#000" stop-opacity="1"/></linearGradient><filter id="filter7554" color-interpolation-filters="sRGB"><feBlend id="feBlend7556" in2="BackgroundImage" mode="darken"/></filter></defs><g id="layer9" display="inline" transform="translate(-485.0004,295.00336)"><path style="text-indent:0;text-transform:none;block-progression:tb" id="path5064" fill="#555" fill-opacity="1" stroke="none" d="m 500.0004,-292.00336 0,0.9375 0,1.0625 -4,0 c -0.5713,0 -1,0.4287 -1,1 l 0,4 c 0,1.6447 -1.3553,3 -3,3 l -5,0 0,-2 5,0 c 0.5713,0 1,-0.4287 1,-1 l 0,-4 c 0,-1.6447 1.3553,-3 3,-3 z" color="#bebebe"/><path style="text-indent:0;text-transform:none" id="path5066" fill="#555" fill-opacity="1" stroke="none" d="m 492.0004,-292.00336 c 0.22957,0 0.44085,0.0438 0.65625,0.0937 -0.4813,0.5511 -0.86125,1.1776 -1.0312,1.9062 l -4.625,0 0,-2 5,0 z m 8,10 -4,0 c -0.22957,0 -0.44085,-0.0438 -0.65625,-0.0937 0.4813,-0.55115 0.86125,-1.1777 1.0312,-1.9063 l 3.62505,0 z" color="#bebebe"/><path id="path5068" fill="#555" fill-opacity="1" stroke="none" d="m 489.0004,-294.00336 0,6 -4,-3 z"/><path id="path5070" fill="#555" fill-opacity="1" stroke="none" d="m 489.0004,-286.00336 0,6 -4,-3 z"/></g></svg>