<svg xmlns="http://www.w3.org/2000/svg" xmlns:osb="http://www.openswatchbook.org/uri/2009/osb" xmlns:svg="http://www.w3.org/2000/svg" id="svg7384" width="16" height="16" enable-background="new" version="1.1"><metadata id="metadata90"/><title id="title8473">Paper Symbolic Icon Theme</title><defs id="defs7386"><linearGradient id="linearGradient5606" osb:paint="solid"><stop id="stop5608" offset="0" stop-color="#000" stop-opacity="1"/></linearGradient><filter id="filter7554" color-interpolation-filters="sRGB"><feBlend id="feBlend7556" in2="BackgroundImage" mode="darken"/></filter></defs><g id="layer9" display="inline" transform="translate(-445.0004,295.00336)"><path style="text-indent:0;text-transform:none;block-progression:tb" id="path5096" fill="#555" fill-opacity="1" stroke="none" d="m 449.00039,-292.00336 c -1.6447,0 -3,1.3553 -3,3 l 0,2.6875 c 0.51709,-0.64597 1.20552,-1.1229 2,-1.40625 l 0,-1.28125 c 0,-0.5713 0.4287,-1 1,-1 l 1,0 0,-0.5 0,-1 0,-0.5 -1,0 z m 5,0 0,2 3,0 c 0.5713,0 1,0.4287 1,1 l 0,4 c 0,0.5713 -0.4287,1 -1,1 l -1,0 -0.65625,0 -1.40625,0 c 0.0187,0.16677 0.0625,0.32822 0.0625,0.5 0,0.53043 -0.11271,1.02745 -0.28125,1.5 l 1.625,0 0.65625,0 1,0 c 1.6447,0 3,-1.3553 3,-3 l 0,-4 c 0,-1.6447 -1.3553,-3 -3,-3 l -3,0 z" color="#000"/><path id="path5098" fill="#555" fill-opacity="1" stroke="none" d="m 451.00016,-291.00336 4,-3 0,6 z"/><path id="path5102" fill="#555" fill-opacity="1" stroke="none" stroke-width="2" d="m 449.50041,-287.00336 c -1.933,0 -3.5,1.567 -3.5,3.5 0,1.933 1.567,3.5 3.5,3.5 1.933,0 3.5,-1.567 3.5,-3.5 0,-1.933 -1.567,-3.5 -3.5,-3.5 z m -0.5,1 1,0 0,5 -1,0 0,-3.5 -1,0 0,-0.5 c 1,0 1,-1 1,-1 z" color="#bebebe" display="inline" enable-background="accumulate" overflow="visible" visibility="visible" style="marker:none"/></g></svg>