<svg xmlns="http://www.w3.org/2000/svg" xmlns:osb="http://www.openswatchbook.org/uri/2009/osb" xmlns:svg="http://www.w3.org/2000/svg" id="svg7384" width="16.001" height="16.001" enable-background="new" version="1.1"><metadata id="metadata90"/><title id="title8473">Paper Symbolic Icon Theme</title><defs id="defs7386"><linearGradient id="linearGradient5606" osb:paint="solid"><stop id="stop5608" offset="0" stop-color="#000" stop-opacity="1"/></linearGradient><filter id="filter7554" color-interpolation-filters="sRGB"><feBlend id="feBlend7556" in2="BackgroundImage" mode="darken"/></filter></defs><g id="layer9" display="inline" transform="translate(-404.99942,415.00079)"><path id="path6532" fill="#555" fill-opacity="1" fill-rule="nonzero" stroke="none" stroke-width="1" d="m 407.34402,-414.0625 12.71875,12.71875 -1.40625,1.40625 -12.71875,-12.71875 z" color="#000" display="inline" enable-background="accumulate" overflow="visible" visibility="visible" style="marker:none"/><path d="m 413.0002,-415 c -1.24595,0 -2.31105,0.7515 -2.76562,1.82813 -2.3e-4,5.3e-4 2.2e-4,0.001 0,0.002 l 5.76562,5.76362 0,-4.59375 c 0,-1.66208 -1.33792,-3 -3,-3 z m -3,4.40625 0,3.59375 c 0,1.66208 1.33791,3 3,3 0.98363,0 1.84418,-0.47608 2.39062,-1.20312 z m -3,2.59375 0,1 c 0,2.96947 2.16237,5.43216 5,5.90625 l 0,2.09375 2,0 0,-2.09375 c 1.39887,-0.23371 2.63093,-0.95383 3.52344,-1.97656 l -1.41797,-1.41797 c -0.72909,0.90441 -1.8347,1.48828 -3.10547,1.48828 -2.23342,0 -4,-1.76659 -4,-4 l 0,-1 z m 10,0 0,1 c 0,0.18587 -0.029,0.36236 -0.0527,0.54102 l 1.63671,1.63671 c 0.26447,-0.6756 0.41599,-1.4083 0.41599,-2.17773 l 0,-1 z" style="marker:none" id="path6829" fill="#555" fill-opacity="1" fill-rule="nonzero" stroke="none" stroke-width="2" color="#bebebe" display="inline" overflow="visible" visibility="visible"/></g></svg>