<svg xmlns="http://www.w3.org/2000/svg" xmlns:osb="http://www.openswatchbook.org/uri/2009/osb" xmlns:svg="http://www.w3.org/2000/svg" id="svg7384" width="16" height="16" enable-background="new" version="1.1"><metadata id="metadata90"/><title id="title8473">Paper Symbolic Icon Theme</title><defs id="defs7386"><linearGradient id="linearGradient6882" osb:paint="solid"><stop id="stop6884" offset="0" stop-color="#555" stop-opacity="1"/></linearGradient><linearGradient id="linearGradient5606" osb:paint="solid"><stop id="stop5608" offset="0" stop-color="#000" stop-opacity="1"/></linearGradient><filter id="filter7554" color-interpolation-filters="sRGB"><feBlend id="feBlend7556" in2="BackgroundImage" mode="darken"/></filter></defs><g id="layer9" display="inline" transform="translate(-305.00356,654.99833)"><path id="path6744" fill="#4d4d4d" fill-opacity="1" stroke="none" d="m 315.00336,-654.99497 c 0.004,0.003 0,1.33333 0,2 l -3,0 0,5 3,0 0,2 1,-0.81836 0,-3.18164 3.88867,0 0.61133,-0.5 -5.5,-4.5 z m -4,6 -5.5,4.5 5.5,4.5 c -0.004,-0.003 0,-1.33333 0,-2 l 3,0 0,-2.1875 0,-0.8125 0,-2 -3,0 0,-2 z" color="#000" opacity=".35"/><path id="path6785" fill="#f44336" fill-opacity="1" stroke="none" d="m 317.00336,-648.99497 -10e-6,4 0.25,2 1.5,0 0.25,-2 10e-6,-4 z m 0,7 0,2 2,0 0,-2 z" class="error" color="#444"/></g></svg>