<svg xmlns="http://www.w3.org/2000/svg" xmlns:osb="http://www.openswatchbook.org/uri/2009/osb" xmlns:svg="http://www.w3.org/2000/svg" id="svg7384" width="16" height="16" enable-background="new" version="1.1"><metadata id="metadata90"/><title id="title8473">Paper Symbolic Icon Theme</title><defs id="defs7386"><linearGradient id="linearGradient6882" osb:paint="solid"><stop id="stop6884" offset="0" stop-color="#555" stop-opacity="1"/></linearGradient><linearGradient id="linearGradient5606" osb:paint="solid"><stop id="stop5608" offset="0" stop-color="#000" stop-opacity="1"/></linearGradient><filter id="filter7554" color-interpolation-filters="sRGB"><feBlend id="feBlend7556" in2="BackgroundImage" mode="darken"/></filter></defs><g id="layer9" display="inline" transform="translate(-425.00356,654.99835)"><path id="path8567" fill="#4d4d4d" fill-opacity="1" stroke="none" d="m 435.00336,-645.99499 5.5,-4.5 -5.5,-4.5 c 0.004,0.003 0,1.33333 0,2 -1,0 -2,0 -3,0 0,1.66667 0,3.33333 0,5 1,0 2,0 3,0 0,0.66667 0,2 0,2 z" color="#000" opacity=".35"/><path id="path8571" fill="#4d4d4d" fill-opacity="1" stroke="none" d="m 431.00336,-648.99499 -5.5,4.5 5.5,4.5 c -0.004,-0.003 0,-1.33333 0,-2 1,0 3,0 3,0 l 0,-2.1875 0,-0.8125 0,-2 c 0,0 -2,0 -3,0 0,-0.66667 0,-2 0,-2 z" color="#000" opacity=".35"/></g></svg>