<svg xmlns="http://www.w3.org/2000/svg" xmlns:osb="http://www.openswatchbook.org/uri/2009/osb" xmlns:svg="http://www.w3.org/2000/svg" id="svg7384" width="16" height="16" enable-background="new" version="1.1"><metadata id="metadata90"/><title id="title8473">Paper Symbolic Icon Theme</title><defs id="defs7386"><linearGradient id="linearGradient6882" osb:paint="solid"><stop id="stop6884" offset="0" stop-color="#555" stop-opacity="1"/></linearGradient><linearGradient id="linearGradient5606" osb:paint="solid"><stop id="stop5608" offset="0" stop-color="#000" stop-opacity="1"/></linearGradient><filter id="filter7554" color-interpolation-filters="sRGB"><feBlend id="feBlend7556" in2="BackgroundImage" mode="darken"/></filter></defs><g id="layer9" display="inline" transform="translate(-325.00344,614.99841)"><path id="path6625" fill="#4d4d4d" fill-opacity="1" stroke="none" stroke-dasharray="none" stroke-linecap="square" stroke-linejoin="miter" stroke-miterlimit="4" stroke-opacity="1" stroke-width="2" d="m 333.00344,-613.9931 c -2.89543,0 -5.79086,1.10272 -8,3.31055 l 8,9.6875 8,-9.6875 c -2.20914,-2.20783 -5.10457,-3.31055 -8,-3.31055 z m 0,1.99805 c 1.10457,0 2,0.89543 2,2 0,1.10457 -0.89543,2 -2,2 l 0,1 -1,0 0,-2 1,0 c 0.55229,0 1,-0.44772 1,-1 0,-0.55228 -0.44771,-1 -1,-1 -0.55228,0 -1,0.44772 -1,1 l -1,0 c 0,-1.10457 0.89543,-2 2,-2 z m -0.5,5.75 c 0.41421,0 0.75,0.33579 0.75,0.75 0,0.41421 -0.33579,0.75 -0.75,0.75 -0.41421,0 -0.75,-0.33579 -0.75,-0.75 0,-0.41421 0.33579,-0.75 0.75,-0.75 z" opacity="1"/></g></svg>