<svg xmlns="http://www.w3.org/2000/svg" xmlns:osb="http://www.openswatchbook.org/uri/2009/osb" xmlns:svg="http://www.w3.org/2000/svg" id="svg7384" width="16" height="16" enable-background="new" version="1.1"><metadata id="metadata90"/><title id="title8473">Paper Symbolic Icon Theme</title><defs id="defs7386"><linearGradient id="linearGradient6882" osb:paint="solid"><stop id="stop6884" offset="0" stop-color="#555" stop-opacity="1"/></linearGradient><linearGradient id="linearGradient5606" osb:paint="solid"><stop id="stop5608" offset="0" stop-color="#000" stop-opacity="1"/></linearGradient><filter id="filter7554" color-interpolation-filters="sRGB"><feBlend id="feBlend7556" in2="BackgroundImage" mode="darken"/></filter></defs><g id="layer9" display="inline" transform="translate(-305.00356,634.99839)"><path id="path6575" fill="#4d4d4d" fill-opacity="1" stroke="none" stroke-dasharray="none" stroke-linecap="round" stroke-linejoin="round" stroke-miterlimit="4" stroke-opacity="1" stroke-width="2" d="m 307.00339,-632.99503 c 0,0 -1,0 -1,1 l 0,9 c 0,1 1,1 1,1 l 2,0 1,1 6,0 0,-3 -1,1 -4,0 -1,-1 -2,0 0,-7 10,0 0,1 2,0 0,-2 c 0,-1 -1,-1 -1,-1 l -12,0 z" opacity=".35"/><path id="path6053-9" fill="#f44336" fill-opacity="1" stroke="none" d="m 317.00339,-628.99503 -1e-5,4 0.25,2 1.5,0 0.25,-2 1e-5,-4 z m 0,7 0,2 2,0 0,-2 z" class="error" color="#444"/></g></svg>