<svg xmlns="http://www.w3.org/2000/svg" xmlns:osb="http://www.openswatchbook.org/uri/2009/osb" xmlns:svg="http://www.w3.org/2000/svg" id="svg7384" width="16.001" height="16" enable-background="new" version="1.1"><metadata id="metadata90"/><title id="title8473">Paper Symbolic Icon Theme</title><defs id="defs7386"><linearGradient id="linearGradient5606" osb:paint="solid"><stop id="stop5608" offset="0" stop-color="#000" stop-opacity="1"/></linearGradient><filter id="filter7554" color-interpolation-filters="sRGB"><feBlend id="feBlend7556" in2="BackgroundImage" mode="darken"/></filter></defs><g id="layer9" display="inline" transform="translate(-445.0002,274.97211)"><path id="path6623" fill="#555" fill-opacity="1" stroke="none" stroke-dasharray="none" stroke-linecap="square" stroke-linejoin="miter" stroke-miterlimit="4" stroke-opacity="1" stroke-width="2" d="m 453.0002,-273 c -3.31371,0 -6,2.68629 -6,6 l -2,0 3,4 3,-4 -2,0 c 0,-2.20914 1.79086,-4 4,-4 2.20914,0 4,1.79086 4,4 0,0.0668 -0.0163,0.12927 -0.0195,0.19531 0.31887,-0.11945 0.65949,-0.19531 1.0195,-0.19531 0.34924,0 0.67942,0.0728 0.99023,0.18555 0.002,-0.0622 0.01,-0.12292 0.01,-0.18555 0,-3.31371 -2.68629,-6 -6,-6 z m 1,9.85742 c -0.32138,0.0832 -0.6526,0.14258 -1,0.14258 a 1,1 0 0 0 -1,1 1,1 0 0 0 1,1 1,1 0 0 0 0.0996,-0.006 c 0.30696,-0.005 0.60628,-0.0404 0.90039,-0.0898 l 0,-0.9043 0,-1.14258 z m 2,1.14258 0,0.1875 c 0.10355,-0.0599 0.20517,-0.12172 0.30469,-0.1875 l -0.30469,0 z" opacity=".35"/><path id="path6628" fill="#555" fill-opacity="1" stroke="none" d="m 458.00088,-266 c -1.108,0 -2,0.91085 -2,2.03125 l 0,0.96875 -1,0 0,1 0,2 0,1 1,0 4,0 1,0 0,-1 0,-2 0,-1 -1,0 0,-0.96875 c 0,-1.1199 -0.892,-2.03125 -2,-2.03125 z m 0,1 c 0.554,0 1,0.4424 1,1 l 0,1 -2,0 0,-1 c 0,-0.5576 0.446,-1 1,-1 z"/></g></svg>