<svg xmlns="http://www.w3.org/2000/svg" xmlns:osb="http://www.openswatchbook.org/uri/2009/osb" xmlns:svg="http://www.w3.org/2000/svg" id="svg7384" width="16" height="16.003" enable-background="new" version="1.1"><metadata id="metadata90"/><title id="title8473">Paper Symbolic Icon Theme</title><defs id="defs7386"><linearGradient id="linearGradient6882" osb:paint="solid"><stop id="stop6884" offset="0" stop-color="#555" stop-opacity="1"/></linearGradient><linearGradient id="linearGradient5606" osb:paint="solid"><stop id="stop5608" offset="0" stop-color="#000" stop-opacity="1"/></linearGradient><filter id="filter7554" color-interpolation-filters="sRGB"><feBlend id="feBlend7556" in2="BackgroundImage" mode="darken"/></filter></defs><g id="layer9" display="inline" transform="translate(-665.03168,475.00328)"><path id="path8641" fill="#4d4d4d" fill-opacity="1" fill-rule="nonzero" stroke="none" stroke-width="4" d="m 673.0002,-475 c -1.06855,-0.0284 -2.02842,0.93145 -2,2 l -4,0 c 0,0 -1,0 -1,1 l 0,11 c 0,1 1,1 1,1 l 8,0 0,-3 -6,0 0,-1 6,0 0,-1 5,0 0,-7 c 0,-1 -1,-1 -1,-1 l -4,0 c 0.0469,-1.08177 -0.93065,-2.02193 -2,-2 z m 0,1 c 0.83678,-0.0296 1.35434,1.15278 0.71875,1.71875 -0.54266,0.60179 -1.67751,0.18423 -1.71875,-0.625 -0.0722,-0.57256 0.42311,-1.10726 1,-1.09375 z m -4,4 8,0 0,1 -8,0 0,-1 z m 0,3 8,0 0,1 -8,0 0,-1 z" color="#000" display="inline" enable-background="accumulate" opacity=".35" overflow="visible" visibility="visible" style="marker:none"/><path id="path5658-8" fill="#4d4d4d" fill-opacity="1" stroke="none" d="m 676.0002,-464 0,1 c 0,0.27614 0.10029,0.53779 0.28125,0.71875 l 0.78125,0.78125 -0.78125,0.78125 c -0.18096,0.18096 -0.28125,0.44261 -0.28125,0.71875 l 0,1 1,0 c 0.27614,0 0.53779,-0.10029 0.71875,-0.28125 l 0.78125,-0.78125 0.78125,0.78125 c 0.18096,0.18096 0.44261,0.28125 0.71875,0.28125 l 1,0 0,-1 c 0,-0.27614 -0.10029,-0.53779 -0.28125,-0.71875 l -0.78125,-0.78125 0.78125,-0.78125 c 0.18096,-0.18096 0.28125,-0.44261 0.28125,-0.71875 l 0,-1 -1,0 c -0.27614,0 -0.53779,0.10029 -0.71875,0.28125 l -0.78125,0.78125 -0.78125,-0.78125 C 677.53799,-463.89971 677.27634,-464 677.0002,-464 Z" display="inline" enable-background="new"/></g></svg>