<svg xmlns="http://www.w3.org/2000/svg" xmlns:osb="http://www.openswatchbook.org/uri/2009/osb" xmlns:svg="http://www.w3.org/2000/svg" id="svg7384" width="16" height="16.003" enable-background="new" version="1.1"><metadata id="metadata90"/><title id="title8473">Paper Symbolic Icon Theme</title><defs id="defs7386"><linearGradient id="linearGradient6882" osb:paint="solid"><stop id="stop6884" offset="0" stop-color="#555" stop-opacity="1"/></linearGradient><linearGradient id="linearGradient5606" osb:paint="solid"><stop id="stop5608" offset="0" stop-color="#000" stop-opacity="1"/></linearGradient><filter id="filter7554" color-interpolation-filters="sRGB"><feBlend id="feBlend7556" in2="BackgroundImage" mode="darken"/></filter></defs><g id="layer9" display="inline" transform="translate(-665.03166,355.00328)"><path id="path3810-3" fill="#4d4d4d" fill-opacity="1" fill-rule="nonzero" stroke="none" stroke-width="4" d="m 673.0002,-355 c -1.06855,-0.0284 -2.02842,0.93145 -2,2 l -4,0 c 0,0 -1,0 -1,1 l 0,11 c 0,1 1,1 1,1 l 9,0 0,-2 0,-1 -7,0 0,-1 7,0 0,-2 -7,0 0,-1 7,0 0,-2 -7,0 0,-1 8,0 0,1 0,0 1.84375,0 1.15625,0 0,-3 c 0,-1 -1,-1 -1,-1 l -4,0 c 0.0469,-1.08177 -0.93065,-2.02193 -2,-2 z m 0,1 c 0.83678,-0.0296 1.35434,1.15278 0.71875,1.71875 -0.54266,0.60179 -1.67751,0.18423 -1.71875,-0.625 -0.0722,-0.57256 0.42311,-1.10726 1,-1.09375 z" color="#000" display="inline" enable-background="accumulate" overflow="visible" visibility="visible" style="marker:none"/><path id="path5140-8-2" fill="#ff9800" fill-opacity="1" stroke="none" stroke-width="2" d="m 677.0004,-348 10e-6,4.00003 0.25,2 1.5,0 0.25,-2 -10e-6,-4.00003 z m 0,7 0,2 2,0 0,-2 z" class="warning" color="#bebebe" display="inline" enable-background="accumulate" overflow="visible" visibility="visible" style="marker:none"/></g></svg>