<svg xmlns="http://www.w3.org/2000/svg" xmlns:osb="http://www.openswatchbook.org/uri/2009/osb" xmlns:svg="http://www.w3.org/2000/svg" id="svg7384" width="16" height="16" enable-background="new" version="1.1"><metadata id="metadata90"/><title id="title8473">Paper Symbolic Icon Theme</title><defs id="defs7386"><linearGradient id="linearGradient6882" osb:paint="solid"><stop id="stop6884" offset="0" stop-color="#555" stop-opacity="1"/></linearGradient><linearGradient id="linearGradient5606" osb:paint="solid"><stop id="stop5608" offset="0" stop-color="#000" stop-opacity="1"/></linearGradient><filter id="filter7554" color-interpolation-filters="sRGB"><feBlend id="feBlend7556" in2="BackgroundImage" mode="darken"/></filter></defs><g id="layer9" display="inline" transform="translate(-385.00043,275.00336)"><path font-stretch="normal" style="line-height:normal;-inkscape-font-specification:Sans;text-indent:0;text-align:start;text-decoration-line:none;text-transform:none;block-progression:tb;marker:none" id="path6460" fill="#555" fill-opacity="1" stroke="none" stroke-width="2" d="m 393.0002,-273.00391 c -1.65686,0 -3,1.3432 -3,3 0,1.6568 1.34314,3 3,3 1.65686,0 3,-1.3432 3,-3 0,-1.6568 -1.34314,-3 -3,-3 z m 0,1.00391 a 2,2 0 0 1 2,2 2,2 0 0 1 -2,2 2,2 0 0 1 -2,-2 2,2 0 0 1 2,-2 z m 0,6.99609 c -6.00023,0.003 -6,4.00391 -6,4.00391 l 0,1 12,0 0,-1 c 0,0 -2.3e-4,-4.00691 -6,-4.00391 z m 0,1 c 2.77727,-10e-4 3.89102,0.85436 4.44922,1.59961 0.5582,0.74525 0.55078,1.4043 0.55078,1.4043 l -10,0 c 0,0 -0.007,-0.65576 0.55078,-1.40039 0.55814,-0.74463 1.67135,-1.60196 4.44922,-1.60352 z" baseline-shift="baseline" color="#000" direction="ltr" display="inline" enable-background="accumulate" font-family="Sans" font-size="medium" font-style="normal" font-variant="normal" font-weight="normal" letter-spacing="normal" opacity=".35" overflow="visible" text-anchor="start" text-decoration="none" visibility="visible" word-spacing="normal" writing-mode="lr-tb"/></g></svg>