<svg xmlns="http://www.w3.org/2000/svg" xmlns:osb="http://www.openswatchbook.org/uri/2009/osb" xmlns:svg="http://www.w3.org/2000/svg" id="svg7384" width="16" height="16" enable-background="new" version="1.1"><metadata id="metadata90"/><title id="title8473">Paper Symbolic Icon Theme</title><defs id="defs7386"><linearGradient id="linearGradient5606" osb:paint="solid"><stop id="stop5608" offset="0" stop-color="#000" stop-opacity="1"/></linearGradient><filter id="filter7554" color-interpolation-filters="sRGB"><feBlend id="feBlend7556" in2="BackgroundImage" mode="darken"/></filter></defs><g id="layer9" display="inline" transform="translate(-365.0004,315.00336)"><g id="g6221" fill="#bebebe" fill-opacity="1" transform="matrix(0,1,1,0,88.0004,-356.00311)"><path style="text-indent:0;text-transform:none;block-progression:tb" id="path6223" fill="#555" fill-opacity="1" d="m 106,165 c -1.6447,0 -3,1.3553 -3,3 l 0,1 0,0.65625 0,3.34375 0,3 c 0,1.6447 1.3553,3 3,3 l 3,0 0,-2 -3,0 c -0.5713,0 -1,-0.4287 -1,-1 l 0,-3 0,-3.34375 0,-0.65625 0,-1 c 0,-0.5713 0.4287,-1 1,-1 l 4,0 c 0.5713,0 1,0.4287 1,1 l 0,3 2,0 0,-3 c 0,-1.6447 -1.3553,-3 -3,-3 l -4,0 z" color="#000" transform="matrix(0,-1,1,0,-123.00025,393)"/></g><path id="path6225" fill="#555" fill-opacity="1" stroke="none" d="m 369.0004,-305.00311 -3,-4 6,0 z"/></g></svg>