<svg xmlns="http://www.w3.org/2000/svg" xmlns:osb="http://www.openswatchbook.org/uri/2009/osb" xmlns:svg="http://www.w3.org/2000/svg" id="svg7384" width="16" height="16" enable-background="new" version="1.1"><metadata id="metadata90"/><title id="title8473">Paper Symbolic Icon Theme</title><defs id="defs7386"><linearGradient id="linearGradient6882" osb:paint="solid"><stop id="stop6884" offset="0" stop-color="#555" stop-opacity="1"/></linearGradient><linearGradient id="linearGradient5606" osb:paint="solid"><stop id="stop5608" offset="0" stop-color="#000" stop-opacity="1"/></linearGradient><filter id="filter7554" color-interpolation-filters="sRGB"><feBlend id="feBlend7556" in2="BackgroundImage" mode="darken"/></filter></defs><g id="layer9" display="inline" transform="translate(-525.00018,395)"><path id="path6913" fill="#555" fill-opacity="1" stroke="none" d="m 533.0002,-395 c -2.07107,0 -3.83471,1.26792 -4.59375,3.0625 -1.92783,0.2866 -3.40625,1.92992 -3.40625,3.9375 0,2.20914 1.79086,4 4,4 l 8.5,0 c 1.933,0 3.5,-1.567 3.5,-3.5 0,-1.79654 -1.35079,-3.2687 -3.09375,-3.46875 C 537.45188,-393.26214 535.42707,-395 533.0002,-395 Z"/><path id="rect6932" fill="#555" fill-opacity="1" stroke="none" stroke-dasharray="none" stroke-linecap="round" stroke-linejoin="round" stroke-miterlimit="4" stroke-opacity="1" stroke-width="4" d="m 528.0002,-383 0,1.13281 -0.98242,-0.5664 -0.5,0.86718 0.98047,0.56641 -0.98047,0.56641 0.5,0.86718 0.98242,-0.5664 0,1.13281 1,0 0,-1.13281 0.98242,0.5664 0.5,-0.86718 -0.98047,-0.56641 0.98047,-0.56641 -0.5,-0.86718 -0.98242,0.5664 0,-1.13281 -1,0 z" opacity=".35"/><path id="path6939" fill="#555" fill-opacity="1" stroke="none" stroke-dasharray="none" stroke-linecap="round" stroke-linejoin="round" stroke-miterlimit="4" stroke-opacity="1" stroke-width="4" d="m 533.0002,-383 0,1.13281 -0.98242,-0.5664 -0.5,0.86718 0.98047,0.56641 -0.98047,0.56641 0.5,0.86718 0.98242,-0.5664 0,1.13281 1,0 0,-1.13281 0.98242,0.5664 0.5,-0.86718 -0.98047,-0.56641 0.98047,-0.56641 -0.5,-0.86718 -0.98242,0.5664 0,-1.13281 -1,0 z" opacity=".35"/><path id="path6941" fill="#555" fill-opacity="1" stroke="none" stroke-dasharray="none" stroke-linecap="round" stroke-linejoin="round" stroke-miterlimit="4" stroke-opacity="1" stroke-width="4" d="m 538.0002,-383 0,1.13281 -0.98242,-0.5664 -0.5,0.86718 0.98047,0.56641 -0.98047,0.56641 0.5,0.86718 0.98242,-0.5664 0,1.13281 1,0 0,-1.13281 0.98242,0.5664 0.5,-0.86718 -0.98047,-0.56641 0.98047,-0.56641 -0.5,-0.86718 -0.98242,0.5664 0,-1.13281 -1,0 z" opacity=".35"/></g></svg>