<svg xmlns="http://www.w3.org/2000/svg" xmlns:osb="http://www.openswatchbook.org/uri/2009/osb" xmlns:svg="http://www.w3.org/2000/svg" id="svg7384" width="16" height="16" enable-background="new" version="1.1"><metadata id="metadata90"/><title id="title8473">Paper Symbolic Icon Theme</title><defs id="defs7386"><linearGradient id="linearGradient6882" osb:paint="solid"><stop id="stop6884" offset="0" stop-color="#555" stop-opacity="1"/></linearGradient><linearGradient id="linearGradient5606" osb:paint="solid"><stop id="stop5608" offset="0" stop-color="#000" stop-opacity="1"/></linearGradient><filter id="filter7554" color-interpolation-filters="sRGB"><feBlend id="feBlend7556" in2="BackgroundImage" mode="darken"/></filter></defs><g id="layer9" display="inline" transform="translate(-505.0002,395.00336)"><path id="path5970" fill="#555" fill-opacity="1" stroke="none" d="m 513.0002,-395 c -2.07107,0 -3.83471,1.26792 -4.59375,3.0625 -1.92783,0.2866 -3.40625,1.92992 -3.40625,3.9375 0,0.73091 0.19587,1.4126 0.53711,2 l -0.0176,0 c 0.56448,0.96993 1.51873,1.67967 2.65039,1.91211 l 1.2793,-1.2793 0.34375,-0.34375 0.70703,-0.70703 1.05078,1.05078 0.69727,0.69727 c 0.18413,-0.49004 0.44246,-0.93856 0.79492,-1.29102 l 1.40625,-1.40625 0.34375,-0.34375 0.70703,-0.70703 1.05078,1.05078 1.40625,1.40625 c 0.43889,0.4389 0.77466,1.00827 0.93555,1.65039 0.004,-0.002 0.009,-0.002 0.0137,-0.004 0,0 0,0.002 0,0.002 0.005,-0.002 0.0103,-0.005 0.0156,-0.008 9.9e-4,-6e-4 0.003,-9.6e-4 0.004,-0.002 0.005,-0.002 0.009,-0.006 0.0137,-0.008 1.21654,-0.547 2.06044,-1.74831 2.06044,-3.16945 0,-1.79654 -1.35079,-3.2687 -3.09375,-3.46875 C 517.45188,-393.26214 515.42707,-395 513.0002,-395 Z m 2.5,9.41016 -1.04297,1.04296 c -0.16304,0.16305 -0.28196,0.34735 -0.35937,0.54688 l 2.80468,0 c -0.0774,-0.19953 -0.19633,-0.38383 -0.35937,-0.54688 l -1.04297,-1.04296 z"/><path id="path7625" fill="#555" fill-opacity="1" stroke="none" stroke-width="1" d="m 515.5002,-387.00391 -0.34375,0.34375 -1.40625,1.40625 c -0.45315,0.45315 -0.75,1.0626 -0.75,1.75 0,1.37479 1.12521,2.5 2.5,2.5 1.37479,0 2.5,-1.12521 2.5,-2.5 0,-0.6874 -0.29685,-1.29685 -0.75,-1.75 l -1.40625,-1.40625 z m -5,2 -0.34375,0.34375 -1.40625,1.40625 c -0.45315,0.45315 -0.75,1.0626 -0.75,1.75 0,1.37479 1.12521,2.5 2.5,2.5 1.37479,0 2.5,-1.12521 2.5,-2.5 0,-0.6874 -0.29685,-1.29685 -0.75,-1.75 l -1.40625,-1.40625 z" baseline-shift="baseline" color="#000" direction="ltr" display="inline" enable-background="accumulate" font-family="Sans" font-stretch="normal" font-style="normal" font-variant="normal" font-weight="normal" letter-spacing="normal" overflow="visible" text-anchor="start" text-decoration="none" visibility="visible" word-spacing="normal" writing-mode="lr-tb" style="line-height:normal;-inkscape-font-specification:Sans;text-indent:0;text-align:start;text-decoration-line:none;text-transform:none;block-progression:tb;marker:none"/></g></svg>