<svg xmlns="http://www.w3.org/2000/svg" xmlns:osb="http://www.openswatchbook.org/uri/2009/osb" xmlns:svg="http://www.w3.org/2000/svg" id="svg7384" width="16" height="16" enable-background="new" version="1.1"><metadata id="metadata90"/><title id="title8473">Paper Symbolic Icon Theme</title><defs id="defs7386"><linearGradient id="linearGradient5606" osb:paint="solid"><stop id="stop5608" offset="0" stop-color="#000" stop-opacity="1"/></linearGradient><filter id="filter7554" color-interpolation-filters="sRGB"><feBlend id="feBlend7556" in2="BackgroundImage" mode="darken"/></filter></defs><g id="layer14" display="inline" transform="translate(-805.00043,351.03455)"><path id="path8496" fill="#555" fill-opacity="1" stroke="none" d="m 808.0002,-350 c -2,0 -2,2 -2,2 l 0,10 c 0,2 2,2 2,2 l 3.07227,0 -0.008,-0.0117 -0.002,-0.004 -0.125,-0.2168 1.63281,-0.94336 c -0.0416,-0.27298 -0.0701,-0.54798 -0.0703,-0.82422 0.002,-0.27569 0.0315,-0.55001 0.0742,-0.82227 l -1.63672,-0.94531 0.125,-0.2168 0.875,-1.51562 0.875,-1.51562 0.125,-0.2168 1.63672,0.94531 c 0.43134,-0.34512 0.91201,-0.62172 1.42578,-0.82422 l 2.4e-4,-1.88859 0.25,0 3.5,0 0.25,0 0,-3 c 0,0 0,-2 -2,-2 l -10,0 z m 10,10 c -1.10457,0 -2,0.89543 -2,2 0,1.10457 0.89543,2 2,2 1.10457,0 2,-0.89543 2,-2 0,-1.10457 -0.89543,-2 -2,-2 z"/></g></svg>