<svg xmlns="http://www.w3.org/2000/svg" xmlns:osb="http://www.openswatchbook.org/uri/2009/osb" xmlns:svg="http://www.w3.org/2000/svg" id="svg2" width="16" height="16" enable-background="new" version="1.1"><metadata id="metadata90"/><defs id="defs7386"><linearGradient id="linearGradient5606" osb:paint="solid"><stop id="stop5608"/></linearGradient></defs><g id="layer14" transform="translate(-781,238.99987)"><path id="path4983" fill="#555" fill-opacity="1" d="M 2 2 L 2 3 C 2 3.55016 2.45347 4 3 4 C 7.97056 4 12 8.02944 12 13 C 12 13.55016 12.45347 14 13 14 L 14 14 L 14 13 C 14 6.92487 9.07513 2 3 2 L 2 2 z M 2 6 L 2 7 C 2 7.55016 2.45347 8 3 8 C 5.76143 8 8 10.23857 8 13 C 8 13.55016 8.45347 14 9 14 L 10 14 L 10 13 C 10 9.134 6.866 6 3 6 L 2 6 z M 4 10 C 2.8954297 10 2 10.895453 2 12 C 2 13.104547 2.8954297 14 4 14 C 5.1045703 14 6 13.104547 6 12 C 6 10.895453 5.1045703 10 4 10 z" transform="translate(781,-238.99987)"/></g></svg>