<svg xmlns="http://www.w3.org/2000/svg" xmlns:osb="http://www.openswatchbook.org/uri/2009/osb" xmlns:svg="http://www.w3.org/2000/svg" id="svg7384" width="16" height="16" enable-background="new" version="1.1"><metadata id="metadata90"/><title id="title8473">Paper Symbolic Icon Theme</title><defs id="defs7386"><linearGradient id="linearGradient5606" osb:paint="solid"><stop id="stop5608" offset="0" stop-color="#000" stop-opacity="1"/></linearGradient><filter id="filter7554" color-interpolation-filters="sRGB"><feBlend id="feBlend7556" in2="BackgroundImage" mode="darken"/></filter></defs><g id="layer14" display="inline" transform="translate(-744.99982,351)"><path d="m 748.0002,-347.99609 0,2 10,0 0,-2 z m 0,4 0,2 6,0 0,-1 0,-1 z m 0,4 0,2 4,-0.004 0,-2 z" style="marker:none" id="rect7008" fill="#555" fill-opacity="1" stroke="none" stroke-width="1" color="#bebebe" display="inline" overflow="visible" visibility="visible"/><path id="path6113-7" fill="#555" fill-opacity="1" fill-rule="nonzero" stroke="none" stroke-width="2" d="m 754.99989,-344.00005 0,2 0,2.09375 c -0.15432,-0.0536 -0.32741,-0.0937 -0.5,-0.0937 -0.82843,0 -1.5,0.67157 -1.5,1.5 0,0.82843 0.67157,1.5 1.5,1.5 0.82843,0 1.5,-0.67157 1.5,-1.5 l 0,-3.5 3,0 0,2.09375 c -0.15432,-0.0536 -0.32741,-0.0937 -0.5,-0.0937 -0.82843,0 -1.5,0.67157 -1.5,1.5 0,0.82843 0.67157,1.5 1.5,1.5 0.82843,0 1.5,-0.67157 1.5,-1.5 l 0,-5.5 -1,0 -3,0 -1,0 z" color="#000" display="inline" enable-background="new" overflow="visible" visibility="visible" style="marker:none"/></g></svg>