<svg xmlns="http://www.w3.org/2000/svg" xmlns:osb="http://www.openswatchbook.org/uri/2009/osb" xmlns:svg="http://www.w3.org/2000/svg" id="svg7384" width="16" height="16" enable-background="new" version="1.1"><metadata id="metadata90"/><title id="title8473">Paper Symbolic Icon Theme</title><defs id="defs7386"><linearGradient id="linearGradient5606" osb:paint="solid"><stop id="stop5608" offset="0" stop-color="#000" stop-opacity="1"/></linearGradient><filter id="filter7554" color-interpolation-filters="sRGB"><feBlend id="feBlend7556" in2="BackgroundImage" mode="darken"/></filter></defs><g id="layer14" display="inline" transform="translate(-687,307)"><path id="path1234" fill="#555" fill-opacity="1" stroke="none" stroke-width="2" d="m 689.81269,-306 a 1.0000999,1.0000999 0 0 0 -0.8125,1 l 0,13 a 1.0000999,1.0000999 0 0 0 1,1 l 10,0 a 1.0000999,1.0000999 0 0 0 1,-1 l 0,-9.4375 a 1.0000999,1.0000999 0 0 0 -0.28125,-0.71875 l -3.5625,-3.5625 A 1.0000999,1.0000999 0 0 0 696.43769,-306 l -6.4375,0 a 1.0000999,1.0000999 0 0 0 -0.0937,0 1.0000999,1.0000999 0 0 0 -0.0937,0 z m 1.1875,2 5,0 0,3 3,0 0,8 -8,0 0,-11 z" baseline-shift="baseline" color="#000" direction="ltr" display="inline" enable-background="accumulate" font-family="Sans" font-size="medium" font-stretch="normal" font-style="normal" font-variant="normal" font-weight="normal" letter-spacing="normal" overflow="visible" text-anchor="start" text-decoration="none" visibility="visible" word-spacing="normal" writing-mode="lr-tb" style="text-indent:0;text-align:start;line-height:normal;text-transform:none;block-progression:tb;marker:none;-inkscape-font-specification:Sans"/></g></svg>