<svg xmlns="http://www.w3.org/2000/svg" xmlns:osb="http://www.openswatchbook.org/uri/2009/osb" xmlns:svg="http://www.w3.org/2000/svg" id="svg7384" width="16" height="16" enable-background="new" version="1.1"><metadata id="metadata90"/><title id="title8473">Paper Symbolic Icon Theme</title><defs id="defs7386"><linearGradient id="linearGradient5606" osb:paint="solid"><stop id="stop5608" offset="0" stop-color="#000" stop-opacity="1"/></linearGradient><filter id="filter7554" color-interpolation-filters="sRGB"><feBlend id="feBlend7556" in2="BackgroundImage" mode="darken"/></filter></defs><g id="layer14" display="inline" transform="translate(-725.00018,331.00336)"><path id="path13895" fill="#555" fill-opacity="1" stroke="none" d="m 728.00018,-330.00336 c -2,0 -2,2 -2,2 l 0,10 c 0,2 2,2 2,2 l 10,0 c 0,0 2,0 2,-2 l 0,-10 c 0,-2 -2,-2 -2,-2 l -2,0 -8,0 z m 1,3 1,0 2,0 1,0 3,0 1,0 0,7 -8,0 0,-7 z m 1,1 0,2 2,0 0,-2 -2,0 z m 3,0 0,2 3,0 0,-2 -3,0 z m -3,3 0,2 2,0 0,-2 -2,0 z m 3,0 0,2 3,0 0,-2 -3,0 z" display="inline" enable-background="new" filter="url(#filter14069)"/></g></svg>