<svg xmlns="http://www.w3.org/2000/svg" xmlns:svg="http://www.w3.org/2000/svg" id="svg2" width="64" height="64" version="1.1"><defs id="defs4"><filter id="filter4189" width="1.165" height="1.23" x="-.082" y="-.115" color-interpolation-filters="sRGB"><feGaussianBlur id="feGaussianBlur4191" stdDeviation=".48"/></filter></defs><metadata id="metadata7"/><g id="layer1" transform="translate(0,-988.3622)"><g id="组" transform="matrix(0.98969072,0,0,0.98969072,-391.89691,738.54777)" style="isolation:isolate"><path id="path2" fill="#ffa000" d="m 452.563,266.563 h -27.282 l -6.062,-6.063 h -15.156 c -3.335,0 -6.063,2.728 -6.063,6.063 v 12.125 h 60.625 v -6.063 c 0,-3.334 -2.728,-6.062 -6.062,-6.062 z"/><path id="path4" fill="#ffca28" d="m 452.563,266.563 h -48.5 c -3.335,0 -6.063,2.728 -6.063,6.062 v 30.313 c 0,3.334 2.728,6.062 6.063,6.062 h 48.5 c 3.334,0 6.062,-2.728 6.062,-6.062 v -30.313 c 0,-3.334 -2.728,-6.062 -6.062,-6.062 z"/></g><g id="g3919" fill="#000" filter="url(#filter4189)" opacity=".05" transform="matrix(2,0,0,2,9.9999998,-1059.3622)"><path id="path3102" fill="#000" fill-opacity="1" stroke="none" d="m 9,1045.8621 a 2.4999999,2.5000292 0 0 1 -2.5,2.5001 2.4999999,2.5000292 0 0 1 -2.5,-2.5001 2.4999999,2.5000292 0 0 1 2.5,-2.4999 2.4999999,2.5000292 0 0 1 2.5,2.4999 z"/><path id="path3100" fill="#000" fill-opacity="1" stroke="none" d="m 13,1041.8622 a 3.5,3.4999796 0 0 1 -3.5,3.5 3.5,3.4999796 0 0 1 -3.5,-3.5 3.5,3.4999796 0 0 1 3.5,-3.5 3.5,3.4999796 0 0 1 3.5,3.5 z"/><path id="path3098" fill="#000" fill-opacity="1" stroke="none" d="m 16,1041.8622 a 2.4999999,2.4999979 0 0 1 -2.5,2.4999 2.4999999,2.4999979 0 0 1 -2.5,-2.4999 2.4999999,2.4999979 0 0 1 2.5,-2.5001 2.4999999,2.4999979 0 0 1 2.5,2.5001 z"/><path id="path3096" fill="#000" fill-opacity="1" stroke="none" d="m 18,1045.8622 a 2.4999999,2.4999979 0 0 1 -2.5,2.5 2.4999999,2.4999979 0 0 1 -2.5,-2.5 2.4999999,2.4999979 0 0 1 2.5,-2.5 2.4999999,2.4999979 0 0 1 2.5,2.5 z"/><path id="rect3408" fill="#000" fill-opacity="1" stroke="none" d="m 6,1043.3622 10,0 0,5 -10,0 z"/></g><g id="g4193" fill="#fff" opacity="1" transform="matrix(2,0,0,2,9.9999998,-1059.3622)"><path id="path4195" fill="#fff" fill-opacity="1" stroke="none" d="m 9,1045.8621 a 2.4999999,2.5000292 0 0 1 -2.5,2.5001 2.4999999,2.5000292 0 0 1 -2.5,-2.5001 2.4999999,2.5000292 0 0 1 2.5,-2.4999 2.4999999,2.5000292 0 0 1 2.5,2.4999 z"/><path id="path4197" fill="#fff" fill-opacity="1" stroke="none" d="m 13,1041.8622 a 3.5,3.4999796 0 0 1 -3.5,3.5 3.5,3.4999796 0 0 1 -3.5,-3.5 3.5,3.4999796 0 0 1 3.5,-3.5 3.5,3.4999796 0 0 1 3.5,3.5 z"/><path id="path4199" fill="#fff" fill-opacity="1" stroke="none" d="m 16,1041.8622 a 2.4999999,2.4999979 0 0 1 -2.5,2.4999 2.4999999,2.4999979 0 0 1 -2.5,-2.4999 2.4999999,2.4999979 0 0 1 2.5,-2.5001 2.4999999,2.4999979 0 0 1 2.5,2.5001 z"/><path id="path4201" fill="#fff" fill-opacity="1" stroke="none" d="m 18,1045.8622 a 2.4999999,2.4999979 0 0 1 -2.5,2.5 2.4999999,2.4999979 0 0 1 -2.5,-2.5 2.4999999,2.4999979 0 0 1 2.5,-2.5 2.4999999,2.4999979 0 0 1 2.5,2.5 z"/><path id="path4203" fill="#fff" fill-opacity="1" stroke="none" d="m 6,1043.3622 10,0 0,5 -10,0 z"/></g></g></svg>