<svg xmlns="http://www.w3.org/2000/svg" xmlns:svg="http://www.w3.org/2000/svg" id="svg2" width="64" height="64" version="1.1"><defs id="defs4"><filter id="filter4149" width="1.192" height="1.192" x="-.096" y="-.096" color-interpolation-filters="sRGB"><feGaussianBlur id="feGaussianBlur4151" stdDeviation="1.12"/></filter></defs><metadata id="metadata7"/><g id="layer1" transform="translate(0,-988.3622)"><g id="组" transform="matrix(0.98969072,0,0,0.98969072,-391.89691,738.54777)" style="isolation:isolate"><path id="path2" fill="#ffa000" d="m 452.563,266.563 h -27.282 l -6.062,-6.063 h -15.156 c -3.335,0 -6.063,2.728 -6.063,6.063 v 12.125 h 60.625 v -6.063 c 0,-3.334 -2.728,-6.062 -6.062,-6.062 z"/><path id="path4" fill="#ffca28" d="m 452.563,266.563 h -48.5 c -3.335,0 -6.063,2.728 -6.063,6.062 v 30.313 c 0,3.334 2.728,6.062 6.063,6.062 h 48.5 c 3.334,0 6.062,-2.728 6.062,-6.062 v -30.313 c 0,-3.334 -2.728,-6.062 -6.062,-6.062 z"/></g><g id="g4306" fill="#000" filter="url(#filter4149)" opacity=".05"><path id="path8" fill="#000" fill-opacity="1" d="m 25,1020.3622 4e-4,6 c 1.33e-4,2 2,2 2,2 l 5.9996,0 c 2,0 2,-2 2,-2 l -4.01e-4,-4 -4,-4 -3.999199,0 c 0,0 -2.000533,0 -2.0004,2 z m 2,0 3,0 0,3 3,0 0,3 -5.9996,0 z"/><path id="path3838" fill="#000" fill-opacity="1" stroke="none" d="m 28,1034.3622 -4,4 c -2,2 -2,2 0,2 l 16,0 c 2,0 2,0 0,-2 l -4,-4 0,-2 -8,0 z" opacity="1"/><path id="rect3831" fill="#000" fill-opacity="1" stroke="none" d="m 22,1012.3622 c -2.216,0 -4,1.784 -4,4 l 0,14 c 0,2.216 1.784,4 4,4 l 20,0 c 2.216,0 4,-1.784 4,-4 l 0,-14 c 0,-2.216 -1.784,-4 -4,-4 z m 0,4 20,0 0,14 -20,0 z" opacity="1"/></g><g id="g4153" fill="#fff" opacity="1"><path id="path4155" fill="#fff" fill-opacity="1" d="m 25,1020.3622 4e-4,6 c 1.33e-4,2 2,2 2,2 l 5.9996,0 c 2,0 2,-2 2,-2 l -4.01e-4,-4 -4,-4 -3.999199,0 c 0,0 -2.000533,0 -2.0004,2 z m 2,0 3,0 0,3 3,0 0,3 -5.9996,0 z"/><path id="path4157" fill="#fff" fill-opacity="1" stroke="none" d="m 28,1034.3622 -4,4 c -2,2 -2,2 0,2 l 16,0 c 2,0 2,0 0,-2 l -4,-4 0,-2 -8,0 z" opacity="1"/><path id="path4159" fill="#fff" fill-opacity="1" stroke="none" d="m 22,1012.3622 c -2.216,0 -4,1.784 -4,4 l 0,14 c 0,2.216 1.784,4 4,4 l 20,0 c 2.216,0 4,-1.784 4,-4 l 0,-14 c 0,-2.216 -1.784,-4 -4,-4 z m 0,4 20,0 0,14 -20,0 z" opacity="1"/></g></g></svg>