<svg xmlns="http://www.w3.org/2000/svg" xmlns:svg="http://www.w3.org/2000/svg" id="svg2" width="64" height="64" version="1.1"><defs id="defs4"><filter id="filter4147" width="1.192" height="1.192" x="-.096" y="-.096" color-interpolation-filters="sRGB"><feGaussianBlur id="feGaussianBlur4149" stdDeviation=".52"/></filter></defs><metadata id="metadata7"/><g id="layer1" transform="translate(0,-988.3622)"><g id="组" transform="matrix(0.98969072,0,0,0.98969072,-391.89691,738.54777)" style="isolation:isolate"><path id="path2" fill="#ffa000" d="m 452.563,266.563 h -27.282 l -6.062,-6.063 h -15.156 c -3.335,0 -6.063,2.728 -6.063,6.063 v 12.125 h 60.625 v -6.063 c 0,-3.334 -2.728,-6.062 -6.062,-6.062 z"/><path id="path4" fill="#ffca28" d="m 452.563,266.563 h -48.5 c -3.335,0 -6.063,2.728 -6.063,6.062 v 30.313 c 0,3.334 2.728,6.062 6.063,6.062 h 48.5 c 3.334,0 6.062,-2.728 6.062,-6.062 v -30.313 c 0,-3.334 -2.728,-6.062 -6.062,-6.062 z"/></g><g id="g4017" fill="#000" fill-opacity="1" filter="url(#filter4147)" opacity=".05" transform="matrix(2,0,0,2,16,-1062.3622)"><path style="line-height:normal" id="path4019" fill="#000" fill-opacity="1" d="m 2.5,1037.8622 c 0,0 -1,0.038 -1,1 v 2 h 2 v -1 h 1 v -2 H 2.59375 Z m 3,0 v 2 h 2 v -2 z m 3,0 v 2 h 2 v -2 z m 3,0 v 2 h 1 v 1 h 2 v -2 c 0,-1 -1,-1 -1,-1 z m -10,4 v 2 h 2 v -2 z m 11,0 v 2 h 2 v -2 z m -11,3 v 2 h 2 v -2 z m 11,0 v 2 h 2 v -2 z m -11,3 v 2 c 0,1 1,1 1,1 h 2 v -2 h -1 v -1 z m 11,0 v 1 h -1 v 2 h 2 c 0,0 1,0 1,-1 v -2 z m -7,1 v 2 h 2 v -2 z m 3,0 v 2 h 2 v -2 z" color="#000"/></g><g id="g4151" fill="#fff" fill-opacity="1" opacity="1" transform="matrix(2,0,0,2,16,-1062.3622)"><path id="path4153" fill="#fff" fill-opacity="1" d="m 2.5,1037.8622 c 0,0 -1,0.038 -1,1 v 2 h 2 v -1 h 1 v -2 H 2.59375 Z m 3,0 v 2 h 2 v -2 z m 3,0 v 2 h 2 v -2 z m 3,0 v 2 h 1 v 1 h 2 v -2 c 0,-1 -1,-1 -1,-1 z m -10,4 v 2 h 2 v -2 z m 11,0 v 2 h 2 v -2 z m -11,3 v 2 h 2 v -2 z m 11,0 v 2 h 2 v -2 z m -11,3 v 2 c 0,1 1,1 1,1 h 2 v -2 h -1 v -1 z m 11,0 v 1 h -1 v 2 h 2 c 0,0 1,0 1,-1 v -2 z m -7,1 v 2 h 2 v -2 z m 3,0 v 2 h 2 v -2 z" color="#000" style="line-height:normal"/></g></g></svg>