<svg xmlns="http://www.w3.org/2000/svg" xmlns:svg="http://www.w3.org/2000/svg" id="svg2" width="64" height="64" version="1.1"><defs id="defs4"><filter id="filter4249" width="1.192" height="1.192" x="-.096" y="-.096" color-interpolation-filters="sRGB"><feGaussianBlur id="feGaussianBlur4251" stdDeviation=".56"/></filter></defs><metadata id="metadata7"/><g id="layer1" transform="translate(0,-988.3622)"><g id="组" transform="matrix(0.98969072,0,0,0.98969072,-391.89691,738.54777)" style="isolation:isolate"><path id="path2" fill="#ffa000" d="m 452.563,266.563 h -27.282 l -6.062,-6.063 h -15.156 c -3.335,0 -6.063,2.728 -6.063,6.063 v 12.125 h 60.625 v -6.063 c 0,-3.334 -2.728,-6.062 -6.062,-6.062 z"/><path id="path4" fill="#ffca28" d="m 452.563,266.563 h -48.5 c -3.335,0 -6.063,2.728 -6.063,6.062 v 30.313 c 0,3.334 2.728,6.062 6.063,6.062 h 48.5 c 3.334,0 6.062,-2.728 6.062,-6.062 v -30.313 c 0,-3.334 -2.728,-6.062 -6.062,-6.062 z"/></g><g id="g3956" fill="#000" filter="url(#filter4249)" opacity=".05" transform="matrix(2,0,0,2,60.84253,-1040.5912)"><g id="g8" fill="#000" fill-opacity="1" transform="translate(-22.421265,1025.4767)"><g id="g10" fill="#000" fill-opacity="1" fill-rule="evenodd" transform="translate(0,-1036.3622)"><path id="path14" fill="#000" fill-opacity="1" d="m 1,1046.3622 4,-5 3.2817389,3.6779 2.2182611,-2.1779 4.5,6.5 -3,2 H 3 Z"/></g></g><path id="rect3007-9" fill="#000" fill-opacity="1" d="m -19.421265,1026.4767 c -1.108,0 -2,0.892 -2,2 v 10 c 0,1.108 0.892,2 2,2 h 10 c 1.108,0 2,-0.892 2,-2 v -10 c 0,-1.108 -0.892,-2 -2,-2 z m 0,2 h 10 v 10 h -10 z"/></g><g id="g4221" fill="#fff" opacity="1" transform="matrix(2,0,0,2,60.84253,-1040.5912)"><g id="g4223" fill="#fff" fill-opacity="1" transform="translate(-22.421265,1025.4767)"><g id="g4225" fill="#fff" fill-opacity="1" fill-rule="evenodd" transform="translate(0,-1036.3622)"><path id="path4227" fill="#fff" fill-opacity="1" d="m 1,1046.3622 4,-5 3.2817389,3.6779 2.2182611,-2.1779 4.5,6.5 -3,2 H 3 Z"/></g></g><path id="path4231" fill="#fff" fill-opacity="1" d="m -19.421265,1026.4767 c -1.108,0 -2,0.892 -2,2 v 10 c 0,1.108 0.892,2 2,2 h 10 c 1.108,0 2,-0.892 2,-2 v -10 c 0,-1.108 -0.892,-2 -2,-2 z m 0,2 h 10 v 10 h -10 z"/></g></g></svg>