<svg xmlns="http://www.w3.org/2000/svg" xmlns:svg="http://www.w3.org/2000/svg" id="svg2" width="64" height="64" version="1.1"><defs id="defs4"><filter id="filter4184" width="1.185" height="1.199" x="-.093" y="-.1" color-interpolation-filters="sRGB"><feGaussianBlur id="feGaussianBlur4186" stdDeviation="1.08"/></filter></defs><metadata id="metadata7"/><g id="layer1" transform="translate(0,-988.3622)"><g id="组" transform="matrix(0.98969072,0,0,0.98969072,-391.89691,738.54777)" style="isolation:isolate"><path id="path2" fill="#ffa000" d="m 452.563,266.563 h -27.282 l -6.062,-6.063 h -15.156 c -3.335,0 -6.063,2.728 -6.063,6.063 v 12.125 h 60.625 v -6.063 c 0,-3.334 -2.728,-6.062 -6.062,-6.062 z"/><path id="path4" fill="#ffca28" d="m 452.563,266.563 h -48.5 c -3.335,0 -6.063,2.728 -6.063,6.062 v 30.313 c 0,3.334 2.728,6.062 6.063,6.062 h 48.5 c 3.334,0 6.062,-2.728 6.062,-6.062 v -30.313 c 0,-3.334 -2.728,-6.062 -6.062,-6.062 z"/></g><path style="line-height:normal" id="path3871" fill="#000" fill-opacity="1" d="m 25,1013.3622 -7,5.5151 7,4.7273 -7,6.303 13.999999,9.4546 L 46,1029.9076 l -7,-6.303 7,-4.7273 -7,-5.5151 -7.000001,5.5151 z" color="#000" filter="url(#filter4184)" opacity=".05"/><path id="path4188" fill="#fff" fill-opacity="1" d="m 25,1013.3622 -7,5.5151 7,4.7273 -7,6.303 13.999999,9.4546 L 46,1029.9076 l -7,-6.303 7,-4.7273 -7,-5.5151 -7.000001,5.5151 z" color="#000" opacity="1" style="line-height:normal"/></g></svg>