<svg xmlns="http://www.w3.org/2000/svg" xmlns:svg="http://www.w3.org/2000/svg" id="svg2" width="64" height="64" version="1.1"><defs id="defs4"><filter id="filter4149" width="1.191" height="1.193" x="-.095" y="-.097" color-interpolation-filters="sRGB"><feGaussianBlur id="feGaussianBlur4151" stdDeviation=".554"/></filter></defs><metadata id="metadata7"/><g id="layer1" transform="translate(0,-988.3622)"><g id="组" transform="matrix(0.98969072,0,0,0.98969072,-391.89691,738.54777)" style="isolation:isolate"><path id="path2" fill="#ffa000" d="m 452.563,266.563 h -27.282 l -6.062,-6.063 h -15.156 c -3.335,0 -6.063,2.728 -6.063,6.063 v 12.125 h 60.625 v -6.063 c 0,-3.334 -2.728,-6.062 -6.062,-6.062 z"/><path id="path4" fill="#ffca28" d="m 452.563,266.563 h -48.5 c -3.335,0 -6.063,2.728 -6.063,6.062 v 30.313 c 0,3.334 2.728,6.062 6.063,6.062 h 48.5 c 3.334,0 6.062,-2.728 6.062,-6.062 v -30.313 c 0,-3.334 -2.728,-6.062 -6.062,-6.062 z"/></g><g id="g4056" fill="#000" fill-opacity="1" filter="url(#filter4149)" opacity=".05" transform="matrix(2,0,0,2,14.000148,1010.3622)"><path id="rect2989" fill="#000" fill-opacity="1" d="m 3,7 v 6 c 0,1.108 0.892,2 2,2 h 1.499926 v -5 h 3 v 5 H 11 c 1.108,0 2,-0.892 2,-2 V 7 Z"/><path id="path3761" fill="#000" fill-opacity="1" stroke="none" d="M 3,6 C 0.79661017,8 0,8 3,8 h 10 c 3,0 2.288136,0 0,-2 L 9,2 C 8,1 8,1 7,2 Z"/><path id="rect3763" fill="#000" fill-opacity="1" stroke="none" d="m 12,2 c 1,0 1,0.446 1,1 V 7 H 11 V 3 c 0,-0.554 0,-1 1,-1 z"/></g><g id="g4153" fill="#fff" fill-opacity="1" opacity="1" transform="matrix(2,0,0,2,14.000148,1010.3622)"><path id="path4155" fill="#fff" fill-opacity="1" d="m 3,7 v 6 c 0,1.108 0.892,2 2,2 h 1.499926 v -5 h 3 v 5 H 11 c 1.108,0 2,-0.892 2,-2 V 7 Z"/><path id="path4157" fill="#fff" fill-opacity="1" stroke="none" d="M 3,6 C 0.79661017,8 0,8 3,8 h 10 c 3,0 2.288136,0 0,-2 L 9,2 C 8,1 8,1 7,2 Z"/><path id="path4159" fill="#fff" fill-opacity="1" stroke="none" d="m 12,2 c 1,0 1,0.446 1,1 V 7 H 11 V 3 c 0,-0.554 0,-1 1,-1 z"/></g></g></svg>