<svg xmlns="http://www.w3.org/2000/svg" xmlns:osb="http://www.openswatchbook.org/uri/2009/osb" xmlns:svg="http://www.w3.org/2000/svg" id="svg7384" width="16" height="16" enable-background="new" version="1.1"><metadata id="metadata90"/><title id="title8473">Paper Symbolic Icon Theme</title><defs id="defs7386"><linearGradient id="linearGradient6882" osb:paint="solid"><stop id="stop6884" offset="0" stop-color="#555" stop-opacity="1"/></linearGradient><linearGradient id="linearGradient5606" osb:paint="solid"><stop id="stop5608" offset="0" stop-color="#000" stop-opacity="1"/></linearGradient><filter id="filter7554" color-interpolation-filters="sRGB"><feBlend id="feBlend7556" in2="BackgroundImage" mode="darken"/></filter></defs><g id="layer2" display="inline" transform="translate(-503.99632,-411.99997)"><path id="rect6190-8-8-4" fill="#555" fill-opacity="1" fill-rule="nonzero" stroke="none" stroke-width="1.508" d="m 512.99652,420 0,1 0,3.28125 c -0.29454,-0.17076 -0.63503,-0.28125 -1,-0.28125 -1.10457,0 -2,0.89543 -2,2 0,1.10457 0.89543,2 2,2 1.10457,0 2,-0.89543 2,-2 l 0.003,-4 4,0 -0.003,2.28125 c -0.29454,-0.17076 -0.63503,-0.28125 -1,-0.28125 -1.10457,0 -2,0.89543 -2,2 0,1.10457 0.89543,2 2,2 1.10457,0 2,-0.89543 2,-2 l 0,-5 0,-1 -1,0 -4,0 z" color="#000" display="inline" enable-background="new" overflow="visible" visibility="visible" style="marker:none"/><path id="rect5523-5" fill="#555" fill-opacity="1" fill-rule="nonzero" stroke="none" stroke-width="1.508" d="m 505,413 0,1 -0.004,0 0,12 0.004,0 0,2 1,0 0,-1 1,0 0,1 1,0 0,-2 -0.004,0 0.004,-1 1,0 -0.004,-2 -1,0 0,-5 8,0 0,1 1,0 1,0 1,0 0,-4 0.004,0 0,-2 -1,0 0,1 -0.004,0 -0.99609,0 0,-1 -1,0 0,1 -0.004,0 0.004,2 -8,0 -0.004,-1 0.004,0 0,-2 -1,0 0,1 -0.004,0 -0.99609,0 0,-1 z m 0.99609,2 1,0 0,1 -1,0 z m 11,0 1,0 0,1 -1,0 z m -11,2 1,0 0,1 -1,0 z m 11,0 1,0 0,1 -1,0 z m -11,2 1,0 0,1 -1,0 z m 0,2 1,0 0,1 -1,0 z m 0,2 1,0 0,1 -1,0 z m 0,2 1,0 0,1 -1,0 z" color="#000" display="inline" enable-background="new" overflow="visible" visibility="visible" style="marker:none"/></g></svg>