<svg xmlns="http://www.w3.org/2000/svg" xmlns:osb="http://www.openswatchbook.org/uri/2009/osb" xmlns:svg="http://www.w3.org/2000/svg" id="svg7384" width="16" height="16" enable-background="new" version="1.1"><metadata id="metadata90"/><title id="title8473">Paper Symbolic Icon Theme</title><defs id="defs7386"><linearGradient id="linearGradient5606" osb:paint="solid"><stop id="stop5608" offset="0" stop-color="#000" stop-opacity="1"/></linearGradient><filter id="filter7554" color-interpolation-filters="sRGB"><feBlend id="feBlend7556" in2="BackgroundImage" mode="darken"/></filter></defs><g id="layer2" display="inline" transform="translate(-464.00001,-409)"><path id="path6506" fill="#555" fill-opacity="1" stroke="none" stroke-dasharray="none" stroke-linecap="round" stroke-linejoin="miter" stroke-miterlimit="4" stroke-opacity="1" stroke-width="2" d="m 471.5,410 c -3.58985,0 -6.5,2.91015 -6.5,6.5 0,3.58985 2.91015,6.5 6.5,6.5 3.58985,0 6.5,-2.91015 6.5,-6.5 0,-3.58985 -2.91015,-6.5 -6.5,-6.5 z m 0,1 c 3.03757,0 5.5,2.46243 5.5,5.5 0,3.03757 -2.46243,5.5 -5.5,5.5 -3.03757,0 -5.5,-2.46243 -5.5,-5.5 0,-3.03757 2.46243,-5.5 5.5,-5.5 z m -0.5,2 0,3 -2.25,0 0,1 2.25,0 1,0 0,-1 0,-3 z" display="inline" enable-background="new" opacity="1"/></g></svg>