<svg xmlns="http://www.w3.org/2000/svg" xmlns:svg="http://www.w3.org/2000/svg" id="svg1375" width="16" height="16" version="1.1" viewBox="0 0 4.233 4.233"><defs id="defs1369"><linearGradient id="color-accent"><stop id="stop34" stop-color="#FFAC00"/></linearGradient></defs><metadata id="metadata1372"/><g id="layer1" transform="translate(0,-292.76665)"><path id="path6346" fill="#000" fill-opacity="1" fill-rule="nonzero" stroke="none" stroke-width=".471" d="m 1.3232393,294.08959 h 0.1984375 c 0.00212,-3e-5 0.00413,-9e-5 0.00619,0 0.050594,0.002 0.1011767,0.0255 0.1364271,0.062 l 0.4526836,0.45268 0.458888,-0.45268 c 0.05271,-0.0457 0.088635,-0.0606 0.1364245,-0.062 h 0.1984375 v 0.19844 c 0,0.0568 -0.0068,0.10926 -0.049609,0.14882 l -0.4526835,0.45269 0.4464843,0.44648 c 0.037343,0.0373 0.055809,0.09 0.055809,0.14263 v 0.19844 H 2.7122912 c -0.052644,0 -0.1052857,-0.0185 -0.1426263,-0.0558 l -0.4526862,-0.45269 -0.4526836,0.45269 c -0.037341,0.0373 -0.089985,0.0558 -0.1426289,0.0558 H 1.3232287 v -0.19844 c 0,-0.0526 0.018468,-0.10529 0.055811,-0.14263 l 0.4526862,-0.44648 -0.4526862,-0.45269 c -0.041817,-0.0386 -0.060158,-0.0931 -0.055811,-0.14882 v -0.19844 z" color="#bebebe" direction="ltr" display="inline" enable-background="new" font-family="Andale Mono" font-size="medium" font-stretch="normal" font-style="normal" font-variant="normal" font-weight="normal" letter-spacing="normal" opacity="1" overflow="visible" text-anchor="start" text-decoration="none" visibility="visible" word-spacing="normal" writing-mode="lr-tb" style="line-height:normal;-inkscape-font-specification:'Andale Mono';text-indent:0;text-align:start;text-decoration-line:none;text-transform:none;marker:none"/></g></svg>