<svg xmlns="http://www.w3.org/2000/svg" xmlns:osb="http://www.openswatchbook.org/uri/2009/osb" xmlns:svg="http://www.w3.org/2000/svg" id="svg7384" width="16" height="16.003" enable-background="new" version="1.1"><metadata id="metadata90"/><title id="title8473">Paper Symbolic Icon Theme</title><defs id="defs7386"><linearGradient id="linearGradient5606" osb:paint="solid"><stop id="stop5608" offset="0" stop-color="#000" stop-opacity="1"/></linearGradient><filter id="filter7554" color-interpolation-filters="sRGB"><feBlend id="feBlend7556" in2="BackgroundImage" mode="darken"/></filter></defs><g id="layer10" display="inline" filter="url(#filter7554)" transform="translate(-405.0004,119.00336)"><path id="path10932" fill="#555" fill-opacity="1" fill-rule="evenodd" stroke="none" stroke-linecap="butt" stroke-linejoin="miter" stroke-opacity="1" stroke-width="1" d="m 413.0002,-119 -2.5,4 1.5,0 0,5 -3,0 0,-1.27148 c 0.61771,-0.35663 0.99874,-1.01525 1,-1.72852 0,-1.10457 -0.89543,-2 -2,-2 -1.10457,0 -2,0.89543 -2,2 5.6e-4,0.71397 0.38169,1.37349 1,1.73047 l 0,1.26953 c 0,2 2,2 2,2 l 3,0 0,1.27148 c -0.61771,0.35663 -0.99874,1.01525 -1,1.72852 0,1.10457 0.89543,2 2,2 1.10457,0 2,-0.89543 2,-2 -5.6e-4,-0.71397 -0.38169,-1.37349 -1,-1.73047 l 0,-1.26953 3,0 c 0,0 2,0 2,-2 l 0,-1 c 0,0 1.125,-0.1875 1,-1 l 0,-2 c 0.125,-1.125 -1,-1 -1,-1 l -2,0 c -1.0625,0 -1,1 -1,1 l 0,2 c 0,1 1,1 1,1 l 0,1 -3,0 0,-5 1.5,0 z"/></g></svg>