<svg xmlns="http://www.w3.org/2000/svg" xmlns:osb="http://www.openswatchbook.org/uri/2009/osb" xmlns:svg="http://www.w3.org/2000/svg" id="svg7384" width="16" height="16.003" enable-background="new" version="1.1"><metadata id="metadata90"/><title id="title8473">Paper Symbolic Icon Theme</title><defs id="defs7386"><linearGradient id="linearGradient5606" osb:paint="solid"><stop id="stop5608" offset="0" stop-color="#000" stop-opacity="1"/></linearGradient><filter id="filter7554" color-interpolation-filters="sRGB"><feBlend id="feBlend7556" in2="BackgroundImage" mode="darken"/></filter></defs><g id="layer10" display="inline" filter="url(#filter7554)" transform="translate(-525.00061,159.00336)"><path id="rect4265" fill="#555" fill-opacity="1" stroke="none" d="m 533.0002,-159 c -2.77,0 -5,2.453 -5,5.5 l 0,5 c 0,3.047 2.23,5.5 5,5.5 2.77,0 5,-2.453 5,-5.5 l 0,-5 c 0,-3.047 -2.23,-5.5 -5,-5.5 z m 0,3 c 0.554,0 1,0.446 1,1 l 0,2 c 0,0.554 -0.446,1 -1,1 -0.554,0 -1,-0.446 -1,-1 l 0,-2 c 0,-0.554 0.446,-1 1,-1 z" display="inline" enable-background="new"/></g></svg>