<svg xmlns="http://www.w3.org/2000/svg" xmlns:osb="http://www.openswatchbook.org/uri/2009/osb" xmlns:svg="http://www.w3.org/2000/svg" id="svg7384" width="16" height="16" enable-background="new" version="1.1"><metadata id="metadata90"/><title id="title8473">Paper Symbolic Icon Theme</title><defs id="defs7386"><linearGradient id="linearGradient5606" osb:paint="solid"><stop id="stop5608" offset="0" stop-color="#000" stop-opacity="1"/></linearGradient><filter id="filter7554" color-interpolation-filters="sRGB"><feBlend id="feBlend7556" in2="BackgroundImage" mode="darken"/></filter></defs><g id="layer10" display="inline" filter="url(#filter7554)" transform="translate(-425.00041,139.00338)"><path id="rect2989-2" fill="#555" fill-opacity="1" stroke="none" d="m 427.0002,-138 c -0.554,0 -1,0.446 -1,1 l 0,11 2,2 1,0 8,0 2,0 c 0.554,0 1,-0.446 1,-1 l 0,-12 c 0,-0.554 -0.446,-1 -1,-1 l -12,0 z m 1,2 10,0 0,10 -1,0 0,-5 -8,0 0,5 -1,0 0,-10 z m 5,6 2,0 0,4 -2,0 0,-4 z"/></g></svg>